<!-- Generator: Adobe Illustrator 21.1.0, SVG Export Plug-In  -->
<svg version="1.1"
	 xmlns="http://www.w3.org/2000/svg" xmlns:xlink="http://www.w3.org/1999/xlink" xmlns:a="http://ns.adobe.com/AdobeSVGViewerExtensions/3.0/"
	 x="0px" y="0px" width="247.1px" height="40px" viewBox="0 0 247.1 40" style="enable-background:new 0 0 247.1 40;"
	 xml:space="preserve">
<style type="text/css">
	.st0{fill:url(#SVGID_1_);}
	.st1{fill:url(#SVGID_2_);}
	.st2{fill:url(#SVGID_3_);}
	.st3{fill:url(#SVGID_4_);}
	.st4{fill:url(#SVGID_5_);}
	.st5{fill:url(#SVGID_6_);}
	.st6{fill:url(#SVGID_7_);}
	.st7{fill:url(#SVGID_8_);}
	.st8{fill:url(#SVGID_9_);}
	.st9{fill:url(#SVGID_10_);}
	.st10{fill:url(#SVGID_11_);}
	.st11{fill:url(#SVGID_12_);}
	.st12{fill:url(#SVGID_13_);}
	.st13{fill:url(#SVGID_14_);}
	.st14{fill:url(#SVGID_15_);}
	.st15{fill:url(#SVGID_16_);}
</style>
<defs>
</defs>
<g>
	<linearGradient id="SVGID_1_" gradientUnits="userSpaceOnUse" x1="6.5355" y1="19.9999" x2="246.5809" y2="19.9999">
		<stop  offset="0" style="stop-color:#9C4BA4"/>
		<stop  offset="1" style="stop-color:#693A91"/>
	</linearGradient>
	<path class="st0" d="M77.6,8.1c-2.1-1.1-4.1-1.7-6.7-1.7c-2.5,0-4.8,0.5-6.7,1.7c-1.9,1.3-3.5,2.9-4.6,4.9c-1.1,2.1-1.6,4.4-1.6,7
		c0,2.5,0.5,4.9,1.6,7c1.1,2.1,2.7,3.6,4.6,4.9c2.1,1.1,4.1,1.7,6.7,1.7c2.5,0,4.8-0.5,6.7-1.7c1.9-1.3,3.5-2.9,4.6-4.9
		c1.1-2.1,1.6-4.4,1.6-7c0-2.5-0.5-4.9-1.6-7C81,11,79.5,9.4,77.6,8.1z M78.8,25.2c-0.8,1.6-1.9,2.9-3.2,3.6
		c-1.3,0.8-2.9,1.3-4.6,1.3c-1.7,0-3.2-0.3-4.6-1.3c-1.4-1-2.4-2.1-3.2-3.6s-1.1-3.3-1.1-5.2c0-1.9,0.3-3.6,1.1-5.2s1.7-2.9,3.2-3.6
		c1.3-0.8,2.9-1.3,4.6-1.3c1.7,0,3.2,0.3,4.6,1.3c1.4,1,2.4,2.1,3.2,3.6s1.1,3.3,1.1,5.2C79.9,21.9,79.6,23.6,78.8,25.2z"/>
	<linearGradient id="SVGID_2_" gradientUnits="userSpaceOnUse" x1="6.5355" y1="19.9999" x2="246.5809" y2="19.9999">
		<stop  offset="0" style="stop-color:#9C4BA4"/>
		<stop  offset="1" style="stop-color:#693A91"/>
	</linearGradient>
	<path class="st1" d="M115,30.3c-0.3-0.2-0.6-0.5-0.8-1.1c-0.2-0.6-0.2-1.6-0.3-3c-0.2-1.1-0.5-2.1-1-3c-0.5-1-1.3-1.6-2.2-2.1
		c1.1-0.5,2.1-1.4,2.9-2.7c0.8-1.3,1.1-2.5,1.1-4c0-1.4-0.3-2.9-1-4c-0.6-1.3-1.6-2.2-2.7-2.9c-1.1-0.6-2.4-1-3.8-1H96.6
		c-0.5,0-1,0.2-1.3,0.5c-0.3,0.3-0.5,0.8-0.5,1.3v23c0,0.5,0.2,1,0.6,1.3c0.3,0.3,0.8,0.5,1.4,0.5c0.5,0,0.8-0.2,1.1-0.5
		c0.3-0.3,0.5-0.8,0.5-1.3v-8.6h7.6c1.3,0,2.2,0.3,3,1c0.8,0.6,1.1,1.6,1.1,2.9c0,1.9,0.3,3.3,0.8,4.3c0.5,1,1.1,1.6,1.9,2.1
		c0.3,0.2,0.8,0.3,1.3,0.3c0.5,0,0.8-0.2,1.1-0.5c0.3-0.2,0.5-0.6,0.5-1.1c0-0.3,0-0.5-0.2-0.8C115.5,30.6,115.3,30.5,115,30.3z
		 M109,19c-0.5,0.5-1.1,0.6-1.7,0.6h-8.7v-9.5h8.6c1.1,0,1.9,0.3,2.7,1.3c0.8,1,1.1,1.9,1.1,3.2c0,1-0.2,1.7-0.5,2.5
		C110.1,17.9,109.6,18.6,109,19z"/>
	<linearGradient id="SVGID_3_" gradientUnits="userSpaceOnUse" x1="6.5355" y1="19.9999" x2="246.5809" y2="19.9999">
		<stop  offset="0" style="stop-color:#9C4BA4"/>
		<stop  offset="1" style="stop-color:#693A91"/>
	</linearGradient>
	<path class="st2" d="M130.4,8.4c0-0.5-0.2-1-0.5-1.3c-0.3-0.3-0.8-0.5-1.3-0.5c-0.6,0-1.1,0.2-1.4,0.5c-0.3,0.3-0.5,0.8-0.5,1.3
		v23.2c0,0.5,0.2,1,0.5,1.3c0.5,0.3,0.8,0.5,1.4,0.5c0.5,0,1-0.2,1.3-0.5c0.5-0.5,0.6-1,0.5-1.4V8.4z"/>
	<linearGradient id="SVGID_4_" gradientUnits="userSpaceOnUse" x1="6.5355" y1="19.8413" x2="246.5809" y2="19.8413">
		<stop  offset="0" style="stop-color:#9C4BA4"/>
		<stop  offset="1" style="stop-color:#693A91"/>
	</linearGradient>
	<path class="st3" d="M162.2,19h-6.7c-0.5,0-1,0.2-1.3,0.5c-0.3,0.3-0.5,0.8-0.5,1.3s0.2,1,0.5,1.3c0.3,0.3,0.8,0.5,1.3,0.5h4.6v6
		c-0.6,0.3-1.4,0.6-2.4,0.8c-1,0.2-1.9,0.3-2.7,0.3c-1.9,0-3.5-0.5-5.1-1.4s-2.7-2.1-3.6-3.6c-0.8-1.6-1.3-3.2-1.3-5.1
		s0.3-3.5,1.3-5.1c1-1.6,2.1-2.7,3.6-3.6c1.6-0.8,3.2-1.3,5.1-1.3c1.7,0,3.5,0.3,5.1,1.1c0.3,0.2,0.6,0.3,1,0.3c0.5,0,1-0.2,1.3-0.5
		s0.5-0.8,0.5-1.3c0-0.3,0-0.5-0.2-0.8c-0.2-0.3-0.3-0.5-0.6-0.6c-1-0.6-2.1-1-3.2-1.3S156.5,6,155.3,6c-2.5,0-4.9,0.6-7,1.9
		c-2.2,1.1-3.8,2.9-5.1,4.9c-1.3,2.2-1.9,4.4-1.9,7c0,2.5,0.6,4.9,1.9,7c1.3,2.1,3,3.6,5.1,4.9c2.1,1.3,4.4,1.9,7,1.9
		c1.4,0,2.9-0.3,4.3-0.6c1.4-0.3,2.7-1,3.8-1.7c0.6-0.3,1-1,1-1.6v-8.6c0-0.5-0.2-1-0.5-1.3C163.3,19.5,163,19.4,162.2,19z"/>
	<linearGradient id="SVGID_5_" gradientUnits="userSpaceOnUse" x1="6.5355" y1="20.1584" x2="246.5809" y2="20.1584">
		<stop  offset="0" style="stop-color:#9C4BA4"/>
		<stop  offset="1" style="stop-color:#693A91"/>
	</linearGradient>
	<path class="st4" d="M195.7,31.1L186,7.9c-0.2-0.5-0.3-0.8-0.6-1c-0.2-0.2-0.6-0.3-1-0.3c-0.5,0-0.8,0.2-1.1,0.3
		c-0.3,0.2-0.6,0.5-0.8,1l-9.7,23.5c0,0.3,0,0.5,0,0.6c0,0.5,0.2,0.8,0.5,1.1c0.3,0.3,0.8,0.5,1.3,0.5c0.3,0,0.6,0,1-0.3
		c0.3-0.3,0.5-0.6,0.6-1l2.4-5.7h11.7l2.4,5.5c0.2,0.5,0.3,0.8,0.6,1c0.3,0.2,0.6,0.3,1,0.3c0.5,0,1-0.2,1.3-0.5
		c0.3-0.3,0.5-0.8,0.5-1.3C196,31.4,196,31.1,195.7,31.1z M180,23.2l4.4-10.6l4.4,10.6H180z"/>
	<linearGradient id="SVGID_6_" gradientUnits="userSpaceOnUse" x1="6.5355" y1="19.9999" x2="246.5809" y2="19.9999">
		<stop  offset="0" style="stop-color:#9C4BA4"/>
		<stop  offset="1" style="stop-color:#693A91"/>
	</linearGradient>
	<path class="st5" d="M229.2,6.7c-0.6,0-1.1,0.2-1.6,0.8l-9.2,13.6l-9-13.6c-0.2-0.3-0.3-0.5-0.6-0.6c-0.3-0.2-0.6-0.2-1-0.2
		c-0.5,0-1,0.2-1.3,0.5c-0.3,0.3-0.5,0.8-0.5,1.3v23.2c0,0.5,0.2,1,0.5,1.3c0.3,0.3,0.8,0.5,1.3,0.5s0.8-0.3,1.1-0.6
		c0.3-0.3,0.5-0.8,0.5-1.3V13.5l7.5,11.6c0.2,0.3,0.3,0.5,0.6,0.6c0.3,0.2,0.5,0.2,0.8,0.2s0.5,0,0.8-0.2c0.2-0.2,0.5-0.5,0.6-0.6
		l7.5-11.3v17.6c0,0.5,0.2,1,0.5,1.3c0.5,0.3,0.8,0.5,1.4,0.5c0.6,0,1.1-0.2,1.4-0.5c0.3-0.3,0.5-0.8,0.5-1.3v-23
		c0-0.5-0.2-1-0.5-1.3C230.1,6.8,229.6,6.7,229.2,6.7z"/>
	<linearGradient id="SVGID_7_" gradientUnits="userSpaceOnUse" x1="6.5355" y1="19.9999" x2="246.5809" y2="19.9999">
		<stop  offset="0" style="stop-color:#9C4BA4"/>
		<stop  offset="1" style="stop-color:#693A91"/>
	</linearGradient>
	<path class="st6" d="M246.6,7.2c-0.3-0.3-0.8-0.5-1.3-0.5c-0.6,0-1.1,0.2-1.4,0.5c-0.3,0.3-0.5,0.8-0.5,1.3v23.2
		c0,0.5,0.2,1,0.5,1.3c0.5,0.3,0.8,0.5,1.4,0.5c0.5,0,1-0.2,1.3-0.5c0.3-0.5,0.5-1,0.5-1.4v-23C247.1,7.9,246.9,7.5,246.6,7.2z"/>
	<linearGradient id="SVGID_8_" gradientUnits="userSpaceOnUse" x1="6.5355" y1="20" x2="246.5809" y2="20">
		<stop  offset="0" style="stop-color:#9C4BA4"/>
		<stop  offset="1" style="stop-color:#693A91"/>
	</linearGradient>
	<path class="st7" d="M43.9,2.2H26.3c-0.3,0-0.6,0.1-0.8,0.3l-6.8,6.7L9.9,0.3C9.8,0.2,9.6,0.1,9.5,0.1C9.4,0,9.2,0,9.1,0
		c0,0,0,0-0.1,0C9,0,9,0,9,0C8.9,0,8.7,0,8.6,0.1C8.5,0.1,8.4,0.2,8.3,0.3L0.3,8.3C0,8.6-0.1,9.1,0.1,9.5c0.2,0.4,0.6,0.7,1,0.7h6.8
		v10.3c0,0,0,0,0,0c0,0,0,0,0,0c0,0,0,0,0,0c0,0.1,0,0.3,0.1,0.4c0,0,0,0.1,0,0.1c0,0.1,0.1,0.2,0.2,0.2c0,0,0,0,0,0.1l8.9,8.7
		c0,0,0,0,0,0l9.7,9.7c0.2,0.2,0.5,0.3,0.8,0.3c0.1,0,0.3,0,0.4-0.1c0.4-0.2,0.7-0.6,0.7-1V22.7v-2.6l2.8-3l13.2-13
		c0.3-0.3,0.4-0.8,0.3-1.2C44.8,2.5,44.4,2.2,43.9,2.2z M10.2,17.7V9.1V3.9l6.9,6.9L10.2,17.7z M3.9,7.9l4.1-4.1v4.1H3.9z
		 M19.7,29.4l0.8-0.5l6-4v11.3L19.7,29.4z M30,15.6l-2,2.2l-1,1.1l-1.2,1l-7.8,7.8l-7.3-7.1l8.8-8.9l0,0l7.3-7.1h14.4L30,15.6z"/>
</g>
</svg>
